/* XPM */
static char *c1026011a6114e4e8486ee5e57def821pCqpCi6v0Nhxwuar[] = {
/* columns rows colors chars-per-pixel */
"64 64 16 1 ",
"  c #0C0A07",
". c #362623",
"X c #3A2B28",
"o c #4C342F",
"O c #553D39",
"+ c #4C403D",
"@ c #554C3C",
"# c #425059",
"$ c #634A45",
"% c #5F7050",
"& c #57636B",
"* c #6E7D61",
"= c #78BA4B",
"- c #8F9D84",
"; c #D2A394",
": c #E4B5A5",
/* pixels */
"=====================     ========         =====================",
"=====================     ========         =====================",
"=====================     ========         =====================",
"=================    ooooo        ooooooooo            =========",
"=================    ooooo        ooooooooo            =========",
"=============    oooo$$$$$oooooooo$$$$$$$$$oooooooooooo     ====",
"=============    oooo$$$$$oooooooo$$$$$$$$$oooooooooooo     ====",
"=============    oooo$$$$$oooooooo$$$$$$$$$oooooooooooo     ====",
"=========    $$$$$$$$$$$$$$$$$$$$$$$$$$$$$$$$$$$$$$    =========",
"=========    $$$$$$$$$$$$$$$$$$$$$$$$$$$$$$$$$$$$$$    =========",
"====     oooo$$$$$$$$$$$$$$$$$$$$$$$$$$$$$$oooooooo$$$$     ====",
"====     oooo$$$$$$$$$$$$$$$$$$$$$$$$$$$$$$oooooooo$$$$     ====",
"====     oooo$$$$$$$$$$$$$$$$$$$$$$$$$$$$$$oooooooo$$$$     ====",
"    ooooooooo$$$$$$$$$$$$$$$$$$$$$$$$$ooooo$$$$$$$$$$$$     ====",
"    ooooooooo$$$$$$$$$$$$$$$$$$$$$$$$$ooooo$$$$$$$$$$$$     ====",
"====     $$$$$$$$$$$$$$$$$$$$$$$$$$$$$$$$$$$$$$$$$$$$$$ooooo    ",
"====     $$$$$$$$$$$$$$$$$$$$$$$$$$$$$$$$$$$$$$$$$$$$$$ooooo    ",
"====     $$$$$$$$$$$$$$$$$$$$$$$$$$$$$$$$$$$$$$$$$$$$$$ooooo    ",
"====     OOOO$$$$$$$$ooooo$$$$oooo$$$$$$$$$$$$$$$$$oooo     ====",
"====     OOOO$$$$$$$$ooooo$$$$oooo$$$$$$$$$$$$$$$$$oooo     ====",
"    OOOOOOOOO$$$$$$$$$$$$$oooo$$$$$$$$$$$$$$$$$$$$$OOOO     ====",
"    OOOOOOOOO$$$$$$$$$$$$$oooo$$$$$$$$$$$$$$$$$$$$$OOOO     ====",
"    OOOOOOOOO$$$$$$$$$$$$$oooo$$$$$$$$$$$$$$$$$$$$$OOOO     ====",
"====     OOOOOOOO$$$$$$$$$$$$$$$$$$$$$$$$$$$$$$$$$$OOOOOOOOO    ",
"====     OOOOOOOO$$$$$$$$$$$$$$$$$$$$$$$$$$$$$$$$$$OOOOOOOOO    ",
"====     OOOOOOOO$$$$$$$$$$$$$$$$$$$$$$$$$$$$$$$$$$OOOOOOOOO    ",
"====     OOOOOOOOOOOO$$$$$$$$$$$$$$$$$$$$$$$$$$OOOOOOOO     ====",
"====     OOOOOOOOOOOO$$$$$$$$$$$$$$$$$$$$$$$$$$OOOOOOOO     ====",
"=========    OOOOOOOO$$$$$$$$$$$$$$$$$OOOOOOOOOOOOO    =========",
"=========    OOOOOOOO$$$$$$$$$$$$$$$$$OOOOOOOOOOOOO    =========",
"=========    OOOOOOOO$$$$$$$$$$$$$$$$$OOOOOOOOOOOOO    =========",
"=============    OOOOOOOOOOOOOOOOOOOOOOOOOOOOOO    =============",
"=============    OOOOOOOOOOOOOOOOOOOOOOOOOOOOOO    =============",
"=========    XXXX****XXXXX************XXXXX****XXXX    =========",
"=========    XXXX****XXXXX************XXXXX****XXXX    =========",
"=========    XXXX****XXXXX************XXXXX****XXXX    =========",
"=========    XXXXXXXX**********************XXXXXXXX    =========",
"=========    XXXXXXXX**********************XXXXXXXX    =========",
"====     XXXXXXXXXXXX**********************XXXXXXXXXXXX     ====",
"====     XXXXXXXXXXXX**********************XXXXXXXXXXXX     ====",
"====     XXXXXXXXXXXX**********************XXXXXXXXXXXX     ====",
"====     ++++****XXXX*****------------*****XXXX****++++     ====",
"====     ++++****XXXX*****------------*****XXXX****++++     ====",
"====     ++++****XXXX*****------------*****XXXX****++++     ====",
"    +++++++++    *********%%%%%%%%%%%%*********    +++++++++    ",
"    +++++++++    *********%%%%%%%%%%%%*********    +++++++++    ",
"    :::::;;;;    XXXX*****------------*****XXXX    ;;;;:::::    ",
"    :::::;;;;    XXXX*****------------*****XXXX    ;;;;:::::    ",
"    :::::;;;;    XXXX*****------------*****XXXX    ;;;;:::::    ",
"====             ##############################             ====",
"====             ##############################             ====",
"=============    ####&&&&&&&&&&&&&&&&&&&&&&####    =============",
"=============    ####&&&&&&&&&&&&&&&&&&&&&&####    =============",
"=============    ####&&&&&&&&&&&&&&&&&&&&&&####    =============",
"=============    #############    #############    =============",
"=============    #############    #############    =============",
"=============    #########    ====    #########    =============",
"=============    #########    ====    #########    =============",
"=============    #########    ====    #########    =============",
"=============    .........    ====    .........    =============",
"=============    .........    ====    .........    =============",
"=========    @@@@.........    ====    .........@@@@    =========",
"=========    @@@@.........    ====    .........@@@@    =========",
"=========    @@@@.........    ====    .........@@@@    ========="
};
