/* XPM */
static char *result[] = {
/* columns rows colors chars-per-pixel */
"64 64 11 1 ",
"  c #382028",
". c #292939",
"X c #683820",
"o c #4A4252",
"O c #73736B",
"+ c #985818",
"@ c #C88028",
"# c #D8B840",
"$ c #9C9C84",
"% c #C6C6AD",
"& c None",
/* pixels */
"XXX$$$$$$$XXX++++++++++++++++$$$$$$XXXXXXX++++++++++++$$$$$$$XXX",
"XXX$$$$$$$XXX++++++++++++++++$$$$$$XXXXXXX++++++++++++$$$$$$$XXX",
"XXX$$$$$$$XXX++++++++++++++++$$$$$$XXXXXXX++++++++++++$$$$$$$XXX",
"XXX$$$%%%%+++@@@##########@@@%%%$$$+++@@@@#########@@@%%%%$$$XXX",
"XXX$$$%%%%+++@@@##########@@@%%%$$$+++@@@@#########@@@%%%%$$$XXX",
"XXX$$$%%%%+++@@@##########@@@%%%$$$+++@@@@#########@@@%%%%$$$XXX",
"XXX$$$%%%%+++@@@##########@@@%%%$$$+++@@@@#########@@@%%%%$$$XXX",
"XXX%%%%%%%+++@@@######@@@@@@@%%%%%%+++@@@@@@@######@@@%%%%%%%XXX",
"XXX%%%%%%%+++@@@######@@@@@@@%%%%%%+++@@@@@@@######@@@%%%%%%%XXX",
"XXX%%%%%%%+++@@@######@@@@@@@%%%%%%+++@@@@@@@######@@@%%%%%%%XXX",
"XXX%%%%%%%XXXXXX+++++++++++++%%%%%%XXXXXXX++++++++++++%%%%%%%XXX",
"XXX%%%%%%%XXXXXX+++++++++++++%%%%%%XXXXXXX++++++++++++%%%%%%%XXX",
"XXX%%%%%%%XXXXXX+++++++++++++%%%%%%XXXXXXX++++++++++++%%%%%%%XXX",
"   %%%%%%%+++@@@##########@@@%%%%%%+++@@@@#########@@@%%%%%%%   ",
"   %%%%%%%+++@@@##########@@@%%%%%%+++@@@@#########@@@%%%%%%%   ",
"   %%%%%%%+++@@@##########@@@%%%%%%+++@@@@#########@@@%%%%%%%   ",
"   %%%%%%%+++@@@##########@@@%%%%%%+++@@@@#########@@@%%%%%%%   ",
"   %%%%%%%+++@@@@@@@@@@@@@@@@%%%%%%+++@@@@@@@@@@@@@@@@%%%%%%%   ",
"   %%%%%%%+++@@@@@@@@@@@@@@@@%%%%%%+++@@@@@@@@@@@@@@@@%%%%%%%   ",
"   %%%%%%%+++@@@@@@@@@@@@@@@@%%%%%%+++@@@@@@@@@@@@@@@@%%%%%%%   ",
"   $$$%%%%+++@@@##########@@@%%%$$$+++@@@@#########@@@%%%%$$$   ",
"   $$$%%%%+++@@@##########@@@%%%$$$+++@@@@#########@@@%%%%$$$   ",
"   $$$%%%%+++@@@##########@@@%%%$$$+++@@@@#########@@@%%%%$$$   ",
"   $$$%%%%+++@@@##########@@@%%%$$$+++@@@@#########@@@%%%%$$$   ",
"   $$$$$$$XXXXXX+++++++++++++$$$$$$XXXXXXX++++++++++++$$$$$$$   ",
"   $$$$$$$XXXXXX+++++++++++++$$$$$$XXXXXXX++++++++++++$$$$$$$   ",
"   $$$$$$$XXXXXX+++++++++++++$$$$$$XXXXXXX++++++++++++$$$$$$$   ",
"   OOO$$$$+++@@@##########@@@$$$OOO+++@@@@#########@@@$$$$OOO   ",
"   OOO$$$$+++@@@##########@@@$$$OOO+++@@@@#########@@@$$$$OOO   ",
"   OOO$$$$+++@@@##########@@@$$$OOO+++@@@@#########@@@$$$$OOO   ",
"   OOOOOOO+++@@@@@@@@@@@@@@@@OOOOOOXXX++++@@@@@@@@@@@@OOOOOOO   ",
"   OOOOOOO+++@@@@@@@@@@@@@@@@OOOOOOXXX++++@@@@@@@@@@@@OOOOOOO   ",
"   OOOOOOO+++@@@@@@@@@@@@@@@@OOOOOOXXX++++@@@@@@@@@@@@OOOOOOO   ",
"   OOOOOOO+++@@@@@@@@@@@@@@@@OOOOOOXXX++++@@@@@@@@@@@@OOOOOOO   ",
"   OOOOOOOXXX+++++++++++++%%%$$$$$$%%%XXXX++++++++++++OOOOOOO   ",
"   OOOOOOOXXX+++++++++++++%%%$$$$$$%%%XXXX++++++++++++OOOOOOO   ",
"   OOOOOOOXXX+++++++++++++%%%$$$$$$%%%XXXX++++++++++++OOOOOOO   ",
"XXX                       $$$$$$$$$$$$                       XXX",
"XXX                       $$$$$$$$$$$$                       XXX",
"XXX                       $$$$$$$$$$$$                       XXX",
"   %%%%%%%%%%%%%XXXXXXXXXX$$$......$$$XXXXXXXXXX%%%%%%%%%%%%%   ",
"   %%%%%%%%%%%%%XXXXXXXXXX$$$......$$$XXXXXXXXXX%%%%%%%%%%%%%   ",
"   %%%%%%%%%%%%%XXXXXXXXXX$$$......$$$XXXXXXXXXX%%%%%%%%%%%%%   ",
"   %%%%%%%%%%%%%XXXXXXXXXX$$$......$$$XXXXXXXXXX%%%%%%%%%%%%%   ",
"   $$$$$$$OOO$$$+++@@@@@@@$$$oooooo$$$@@@@@@@+++$$$OOO$$$$$$$   ",
"   $$$$$$$OOO$$$+++@@@@@@@$$$oooooo$$$@@@@@@@+++$$$OOO$$$$$$$   ",
"   $$$$$$$OOO$$$+++@@@@@@@$$$oooooo$$$@@@@@@@+++$$$OOO$$$$$$$   ",
"                ++++++++++OOO$$$$$$OOO++++++++++                ",
"                ++++++++++OOO$$$$$$OOO++++++++++                ",
"                ++++++++++OOO$$$$$$OOO++++++++++                ",
"                ++++++++++OOO$$$$$$OOO++++++++++                ",
"   XXXXXXXXXXXXXXXXXXXXXXXXXXOOOOOOXXXXXXXXXXXXXXXXXXXXXXXXXX   ",
"   XXXXXXXXXXXXXXXXXXXXXXXXXXOOOOOOXXXXXXXXXXXXXXXXXXXXXXXXXX   ",
"   XXXXXXXXXXXXXXXXXXXXXXXXXXOOOOOOXXXXXXXXXXXXXXXXXXXXXXXXXX   ",
"   %%%%%%%%%%%%%+++@@@@@@@+++XXXXXX+++@@@@@@@+++%%%%%%%%%%%%%   ",
"   %%%%%%%%%%%%%+++@@@@@@@+++XXXXXX+++@@@@@@@+++%%%%%%%%%%%%%   ",
"   %%%%%%%%%%%%%+++@@@@@@@+++XXXXXX+++@@@@@@@+++%%%%%%%%%%%%%   ",
"   $$$$$$$OOO$$$++++++++++++++++++++++++++++++++$$$OOO$$$$$$$   ",
"   $$$$$$$OOO$$$++++++++++++++++++++++++++++++++$$$OOO$$$$$$$   ",
"   $$$$$$$OOO$$$++++++++++++++++++++++++++++++++$$$OOO$$$$$$$   ",
"   $$$$$$$OOO$$$++++++++++++++++++++++++++++++++$$$OOO$$$$$$$   ",
"&&&                                                          &&&",
"&&&                                                          &&&",
"&&&                                                          &&&"
};
