/* XPM */
static char *cc9bed65b37d4beac647d6a4abb8b8e5HWy4GIJXFwSLKPVb[] = {
/* columns rows colors chars-per-pixel */
"64 64 19 1 ",
"  c #0C0A07",
". c #291A18",
"X c #362623",
"o c #3A2B28",
"O c #4C342F",
"+ c #553D39",
"@ c #4C403D",
"# c #554C3C",
"$ c #425059",
"% c #634A45",
"& c #57636B",
"* c #6E7D61",
"= c #B56A68",
"- c #78BA4B",
"; c #87947C",
": c #C0AC98",
"> c #D2A394",
", c #E4B5A5",
"< c #DBCBBC",
/* pixels */
"---------------------         --------     ---------------------",
"---------------------         --------     ---------------------",
"---------------------         --------     ---------------------",
"---------            OOOOOOOOO        OOOOO    -----------------",
"---------            OOOOOOOOO        OOOOO    -----------------",
"----     OOOOOOOOOOOO%%%%%%%%%OOOOOOOO%%%%%OOOO    -------------",
"----     OOOOOOOOOOOO%%%%%%%%%OOOOOOOO%%%%%OOOO    -------------",
"----     OOOOOOOOOOOO%%%%%%%%%OOOOOOOO%%%%%OOOO    -------------",
"---------    %%%%%%%%%%%%%%%%%%%%%%%%%%%%%%%%%%%%%%    ---------",
"---------    %%%%%%%%%%%%%%%%%%%%%%%%%%%%%%%%%%%%%%    ---------",
"----     %%%%%%%%%%%%%%%%%%%%%%%%%%%%%%%%%%%%%%%%%%OOOO     ----",
"----     %%%%%%%%%%%%%%%%%%%%%%%%%%%%%%%%%%%%%%%%%%OOOO     ----",
"----     %%%%%%%%%%%%%%%%%%%%%%%%%%%%%%%%%%%%%%%%%%OOOO     ----",
"----     %%%%%%%%%%%%OOOOOOOOO%%%%OOOO%%%%%%%%%%%%%OOOOOOOOO    ",
"----     %%%%%%%%%%%%OOOOOOOOO%%%%OOOO%%%%%%%%%%%%%OOOOOOOOO    ",
"    OOOOOOOOO%%%%%%%%>>>>>OOOO%%%%>>>>%%%%%%%%%%%%%%%%%     ----",
"    OOOOOOOOO%%%%%%%%>>>>>OOOO%%%%>>>>%%%%%%%%%%%%%%%%%     ----",
"    OOOOOOOOO%%%%%%%%>>>>>OOOO%%%%>>>>%%%%%%%%%%%%%%%%%     ----",
"----     OOOO%%%%>>>>>>>>>>>>>%%%%>>>>>>>>>%%%%%%%%%%%%     ----",
"----     OOOO%%%%>>>>>>>>>>>>>%%%%>>>>>>>>>%%%%%%%%%%%%     ----",
"----     %%%%%%%%>>>>     ,,,,>>>>,,,,     >>>>OOOO%%%%%%%%%    ",
"----     %%%%%%%%>>>>     ,,,,>>>>,,,,     >>>>OOOO%%%%%%%%%    ",
"----     %%%%%%%%>>>>     ,,,,>>>>,,,,     >>>>OOOO%%%%%%%%%    ",
"    +++++%%%%====>>>>.....,,,,,,,,,,,,.....>>>>====++++     ----",
"    +++++%%%%====>>>>.....,,,,,,,,,,,,.....>>>>====++++     ----",
"    +++++%%%%====>>>>.....,,,,,,,,,,,,.....>>>>====++++     ----",
"----     ++++++++>>>>,,,,,,,,,,,,,,,,,,,,,,>>>>++++++++     ----",
"----     ++++++++>>>>,,,,,,,,,,,,,,,,,,,,,,>>>>++++++++     ----",
"---------    ++++++++>>>>>,,,,,,,,,,,,>>>>>++++++++    ---------",
"---------    ++++++++>>>>>,,,,,,,,,,,,>>>>>++++++++    ---------",
"---------    ++++++++>>>>>,,,,,,,,,,,,>>>>>++++++++    ---------",
"-------------    ++++     >>>>>>>>>>>>     ++++    -------------",
"-------------    ++++     >>>>>>>>>>>>     ++++    -------------",
"---------    oooo****ooooo::::::::::::ooooo****oooo    ---------",
"---------    oooo****ooooo::::::::::::ooooo****oooo    ---------",
"---------    oooo****ooooo::::::::::::ooooo****oooo    ---------",
"---------    oooo****@@@@@<<<<<<<<::::@@@@@****oooo    ---------",
"---------    oooo****@@@@@<<<<<<<<::::@@@@@****oooo    ---------",
"----     oooooooo;;;;@@@@@<<<<<<<<<<<<@@@@@;;;;oooooooo     ----",
"----     oooooooo;;;;@@@@@<<<<<<<<<<<<@@@@@;;;;oooooooo     ----",
"----     oooooooo;;;;@@@@@<<<<<<<<<<<<@@@@@;;;;oooooooo     ----",
"----     @@@@oooo****@@@@@::::<<<<<<<<@@@@@****oooo@@@@     ----",
"----     @@@@oooo****@@@@@::::<<<<<<<<@@@@@****oooo@@@@     ----",
"----     @@@@oooo****@@@@@::::<<<<<<<<@@@@@****oooo@@@@     ----",
"    @@@@@@@@@    oooo@@@@@<<<<::::<<<<@@@@@oooo    @@@@@@@@@    ",
"    @@@@@@@@@    oooo@@@@@<<<<::::<<<<@@@@@oooo    @@@@@@@@@    ",
"    ,,,,,>>>>    ooooooooo$$$$$$$$$$$$ooooooooo    >>>>,,,,,    ",
"    ,,,,,>>>>    ooooooooo$$$$$$$$$$$$ooooooooo    >>>>,,,,,    ",
"    ,,,,,>>>>    ooooooooo$$$$$$$$$$$$ooooooooo    >>>>,,,,,    ",
"----             $$$$&&&&&&&&&&&&&&&&&&&&&&$$$$             ----",
"----             $$$$&&&&&&&&&&&&&&&&&&&&&&$$$$             ----",
"-------------    $$$$&&&&&&&&&$$$$&&&&&&&&&$$$$    -------------",
"-------------    $$$$&&&&&&&&&$$$$&&&&&&&&&$$$$    -------------",
"-------------    $$$$&&&&&&&&&$$$$&&&&&&&&&$$$$    -------------",
"-------------    $$$$&&&&&$$$$    $$$$&&&&&$$$$    -------------",
"-------------    $$$$&&&&&$$$$    $$$$&&&&&$$$$    -------------",
"-------------    $$$$$$$$$    ----    $$$$$$$$$    -------------",
"-------------    $$$$$$$$$    ----    $$$$$$$$$    -------------",
"-------------    $$$$$$$$$    ----    $$$$$$$$$    -------------",
"-------------    XXXXXXXXX    ----    XXXXXXXXX    -------------",
"-------------    XXXXXXXXX    ----    XXXXXXXXX    -------------",
"---------    ########XXXXX    ----    XXXXX########    ---------",
"---------    ########XXXXX    ----    XXXXX########    ---------",
"---------    ########XXXXX    ----    XXXXX########    ---------"
};
