/* XPM */
static char *result[] = {
/* columns rows colors chars-per-pixel */
"64 64 172 2 ",
"   c black",
".  c #0C0B0C",
"X  c #121111",
"o  c #151619",
"O  c #221818",
"+  c #21241E",
"@  c #181B22",
"#  c #1F2129",
"$  c #2D2420",
"%  c #232A2A",
"&  c #322D29",
"*  c #3E2F2B",
"=  c #27352C",
"-  c #242630",
";  c #2A2E36",
":  c #202B3D",
">  c #2D3C33",
",  c #2A353A",
"<  c #363736",
"1  c #4D2D28",
"2  c #433536",
"3  c #453F35",
"4  c #4F3B36",
"5  c #413A3B",
"6  c #573F37",
"7  c #623A21",
"8  c #35422A",
"9  c #23433C",
"0  c #34403C",
"q  c #364A3D",
"w  c #4E4932",
"e  c #4F403E",
"r  c #58433E",
"t  c #63493D",
"y  c #283B41",
"u  c #2F4446",
"i  c #3C4945",
"p  c #364E48",
"a  c #28504E",
"s  c #365342",
"d  c #345B44",
"f  c #36524F",
"g  c #3D5948",
"h  c #2A4658",
"j  c #3E5650",
"k  c #3C604E",
"l  c #3B697D",
"z  c #414243",
"x  c #514B42",
"c  c #5D4844",
"v  c #445040",
"b  c #405047",
"n  c #4C5644",
"m  c #415E42",
"M  c #495050",
"N  c #475A50",
"B  c #555652",
"V  c #624C43",
"C  c #6D5145",
"Z  c #60534A",
"A  c #625F4C",
"S  c #6E5A4E",
"D  c #745748",
"F  c #7C5948",
"G  c #426B46",
"H  c #45654D",
"J  c #53644A",
"K  c #516F4C",
"L  c #406652",
"P  c #446055",
"I  c #446C52",
"U  c #45665B",
"Y  c #4C615A",
"T  c #4E6E58",
"R  c #5D605C",
"E  c #586C5C",
"W  c #4F7555",
"Q  c #457358",
"!  c #527D55",
"~  c #527A5E",
"^  c #5C7B5C",
"/  c #7E6840",
"(  c #7E604F",
")  c #697C45",
"_  c #736658",
"`  c #686769",
"'  c #697066",
"]  c #76726E",
"[  c #747B76",
"{  c #85624F",
"}  c #93734A",
"|  c #896855",
" . c #906C54",
".. c #83705B",
"X. c #967259",
"o. c #9F7B5A",
"O. c #867966",
"+. c #9B7664",
"@. c #5C8C4E",
"#. c #488052",
"$. c #4F8659",
"%. c #58835F",
"&. c #578858",
"*. c #648D59",
"=. c #738E55",
"-. c #69A459",
";. c #628565",
":. c #6B8061",
">. c #678C61",
",. c #608E67",
"<. c #639461",
"1. c #6E9667",
"2. c #699B60",
"3. c #6A9B69",
"4. c #789963",
"5. c #6E9178",
"6. c #70A264",
"7. c #71A670",
"8. c #ABA133",
"9. c #888751",
"0. c #AF844D",
"q. c #A98059",
"w. c #AA885F",
"e. c #A39357",
"r. c #B89758",
"t. c #B2A94C",
"y. c #86866E",
"u. c #9D8A6C",
"i. c #929A6D",
"p. c #B09168",
"a. c #A9997E",
"s. c #B79973",
"d. c #80AA62",
"f. c #80AA74",
"g. c #8DBA73",
"h. c #C2A56B",
"j. c #D8B56D",
"k. c #CAAD78",
"l. c #D6E65C",
"z. c #ECDC6C",
"x. c #549DAA",
"c. c #808281",
"v. c #9C9280",
"b. c #929094",
"n. c #A59E91",
"m. c #94A282",
"M. c #A4A880",
"N. c #B9A982",
"B. c #A4B88E",
"V. c #B0A891",
"C. c #B0B9AF",
"Z. c #CFBB8C",
"A. c #D2B189",
"S. c #C3B7A5",
"D. c #CEA2B5",
"F. c #AACF8E",
"G. c #DDC99C",
"H. c #F4EA98",
"J. c #D0C5B5",
"K. c #EED7B5",
"L. c #CCCFC4",
"P. c #DAD6C4",
"I. c #D8D9D3",
"U. c #F6EEC2",
"Y. c #E8E4D3",
"T. c #CDF8FF",
"R. c #E0E0E6",
"E. c #F4EEE2",
"W. c #FDFAE0",
"Q. c #F8F6EE",
"!. c #FCFDFB",
"~. c None",
/* pixels */
"~.~.~.~.~.~.~.~.~.~.~.~.~.~.~.~.~.~.~.~.~.~.~.~.~.~.~.~.~.~.~.B . . . ~.~.~.~.~.~.~.~.~.~.~.~.~.~.~.~.~.~.~.~.~.~.~.~.~.~.~.~.~.",
"~.~.~.~.~.~.~.~.~.~.~.~.~.~.~.~.~.~.~.~.~.~.~.~.~.~.R W W O . e e e e e . ~.; @ o ~.~.~.~.~.~.~.~.~.~.~.~.~.~.~.~.~.~.~.~.~.~.~.",
"~.~.~.~.~.~.~.~.~.~.~.~.~.~.~.~.~.~.~.~.~.~.~.~.X . g m . M . e r | q.r 2 U U U U P ; ~.  W K . ~.~.~.~.~.~.~.~.~.~.~.~.~.~.~.~.",
"~.~.~.~.~.~.~.~.~.~.~.~.~.~.~.~.~.~.~.~.~.~.~.~.o L L <.. D.. r c  .!.q.( U L U U U 0 !.  W I . ~.~.~.~.~.~.~.~.~.~.~.~.~.~.~.~.",
"~.~.~.~.~.~.~.~.~.~.~.~.~.~.~.~.~.~.~.. f.F.g g . L L 6.&.#.r 6 |  .X !.!.. . . !.i.u ' !.. . ~.~.~.~.~.~.~.~.~.~.~.~.~.~.~.~.~.",
"~.~.~.~.~.~.~.~.~.~.~.~.~.~.~.~.~.~.~.B.F.Q.g g . L U *.6.#.r 6 |  .# !.!.3 . Z S.!.. . n.!.. ~.N . . . ~.~.~.~.~.~.~.~.~.~.~.~.",
"~.~.~.~.~.~.~.~.~.~.~.~.~.~.~.~.. # . !.U.k k . . . . . . c c c t . ( { { F C . Z !.. 9 . W H X L I 2.<.. ~.~.~.~.~.~.~.~.~.~.~.",
"~.~.~.~.~.~.. . . ~.~.~.~.. . 0 N T T !.k k X 4 D D D D D . . . ( ( y y y X.X.{  . . . . . .6 % . y ,.%.<.. ~.~.~.~.~.~.~.~.~.~.",
"~.~.~.~.~.. b p 0 ~.~.~.! <.<.K H T T T T . e e S q.q.D D  . . .D & Q Q y e X.r  . . . . . .t . . . 2.2.k ~ . ~.~.~.~.~.~.~.~.~.",
"~.~.~.~.g ~ 6.6.W 0 0 m k k <.>.. > . C C C e e D D X.q.q. .V V s %.1.I L P # X.X.X.X.e  . . .V . X M <.P o ~.~.~.~.~.~.~.~.~.~.",
"~.~.~.. 4., f e.r.k . 3 m g . . # X C C C C e e e C C Z V V V & X X g.4.4.P P e c c X.X.X.c  .j.c M . N . ~.~.~.o P p . ~.~.~.~.",
"~.~.~.. ; p U p u I % Z . k X S.. C D C 5 5 e e . o  . . .} Z . k L , 4.4.P P e  . .c X.X.c X.j.| I I . . ~.~.. L P P P ~.~.~.~.",
"~.~.~.~.P U P o o E.!.B . Y . $ X C r 3 C V 2 . | p.w.Z.!.Q.e p M.M.L L , 4.4.4.. . | c X. .p.A._ U I l.b . ~.I 1.2.P P X ~.~.~.",
"~.~.~.~.P P c.' c.o K.X ' ` y.9.. c & C C 2 { | | p.s.A.!.. x c > ! m.S a 4.4.4.Z V C { {  .p.!.U U I I.k + . L L 2.N N X ~.~.~.",
"~.~.~.~.P P y c.c.c.. D.6 6 . . c s H N r r V V | | | | X e 0 d d d _ . 0 ! ! 2 e r V C ( k.!.!.U U U E !.Q o g k 6.j j ~.~.~.~.",
"~.~.~.~.. x.. c.c.c.c.K.{ { e V > 3.3.+ X r V V c | | t e e . . . 6.I I I b i ! @ e r * ( { S.U U U U n.` Q W . . i . ~.~.~.~.~.",
"~.~.~.~.~.. ~.c.c.B 1 K.( e e { I 3.3.> . 6 . . c r r r r . %.%.b . 3.I I < + %.N X e . 4 { S.U U U U n.i Q W W W . . ~.~.~.~.~.",
"~.~.~.~.~.~.~.~.X * p.r r F { 6 Q 3.3.I 0 g N N H . . . . %.^ x @ @ @ . . . @ k -.. B e . V w.!.<.>.g X 2.2.I 9 9 L . ~.~.~.~.~.",
"~.~.~.~.~.~.~.~.~.t 2 r ( { + 1.1.3.I X b s . . b W . >.>.H . B . . . @ # <.2.2.. 0 B e e D S !.!.2 o o 2.2.2.!.!.X >.o ~.~.~.~.",
"~.~.~.~.~.~.~.~.~.. 2 r ( { ! 1.1.L L . j m k b y E . g >.g . . ; - - . N I H 1.X / B x x . S S !...V X ! <.<.. . !.o @.~.~.~.~.",
"~.~.~.~.~.~.~.~.~.. o C F 5 5 P P L X P P 2.H H H ^ 8 . . . ; ; ; ; - - - > T H ;.;._ > ,.,.;.@ w.N.c t @ &.&.+ X M U.W ~.~.~.~.",
"~.~.~.~.~.~.~.~.~.. . V F F 5 5 . . y P P 2.H H H d.8 ; ; o ; ; ; ; - - - . . ;.;.8 X ,.,.,.T C.. D !./ @ &.&.= o i H.X ~.~.~.~.",
"~.~.~.~.~.~.~.~.~.*.K . F F r c V c + I I 6.2.> d.+ . o o o o o o o # o - - - - - # X k k k k I.4 4 X.!.u.G *.& j N H.l k g . ~.",
"~.~.~.~.~.~.~.~.o &.&.v . 6 { { r 6 . I I 4.n . . o o o o o o o # # # o - - - - - 0 7.k k K.!.!.4 4 { { N.M < 4 4 E.X b.. k W . ",
"~.~.~.~.~.~.~.~.X &.&.H r 4 { { 4 . 5 I I 6.. . o o o o o o o o # # o @ - . . . - ; k k k s !.b.. 5 ( { s.o @ e e V . ] X &.6.. ",
"~.~.~.~.~.~.~.~.~.n n . D { c o o.t 5 q I . # @ o o o o o # # # # o -             o P %.%.P P k k . F F C  .< e e 2 k Q = 0 <.. ",
"~.~.~.~.~.~.~.~.~.. w C D r | I.!.| | 3 . # @ . o o o o o # # # - -                 y f j 0 . j j j . D e  . .r 4 4 o L A o . ~.",
"~.~.~.~.~.~.~.~.~.. w C t .  .P.!.a.{ . 7 # . o o o # o o # # X - -                 . p u . p % j j . 5 e  . . .4 t 6 $ ) . ~.~.",
"~.~.~.~.~.~.!.X J J . C . c c c !.!.!.D + @ o o o o @ # o o X - - .                   f . T ~ E U . I P . 2 6  . .2 t X !.o ~.~.",
"~.~.~.~.~.. Q !.. J . * c c c V c !.!.C $ y.o o o - - o o o o # .                     X : T ~ E % q I I ,.. 6 | | 2 t X !.X ~.~.",
"~.~.~.~.f f ~ . . . r 4 c W 2.2.2.2.z r . S.X o @ - - - @ - # #                       , , . . w ! s s >.>.m K 6 r 4 + o P.. ~.~.",
"~.~.. . f u . Q Q . c 2 ! ! 3.f ! 2.2.e . . X X - - - @ o - # .                           ; ; . 1.1.1.1.g >.s z . 4 X !.X ~.~.~.",
"~.~.. . . ' . <.<.. c X 6.6.p j j k H x . . X X - - - @ # - .                             ; ; . 1.1.1.1.g >.s %.. 4 o Y.a a . ~.",
"~.. u X . z 6.3.3.I . X I s 6.6.L L g y.s i . X - @ @ @ - - X                               ; - g 3.H H 4.^ n . $ X.6 . s W W X ",
"~.: u . 6.6.6.! 7.W I . I 4.. X X.X.} d g . . . # @ @ - - - .                               : i i . 2.H K . f H o X.X.4 k . q X ",
"~.I . 6.6.6.6.<.7.7.I . H 4.. r X.X.} . . . . . # @ @ - - - .                               . i i . W W .  .o H N C  . .k g 0 X ",
". W S + Q Q I L >.I I . P N . c V $ !.!.% I.R.. @ - - - - - .                             X I i S.!.#.#. .C . H H . X. .k g 0 X ",
". ~ j.D . . . L g I I V P N V V 6 !.!.. k k t.!.. - - @ - - .                             X L E Z . $.. | . k H H . +.u.e.. 0 ~.",
"~.. I T E.T.t . . . D V * C 6 * !.!.Z p 3.3.X 0.# - # @ @ - #                             k L n . #.$.! ~ Q d o.D t u.!.' . ~.~.",
"~.X I T j _ & r 4 * V 6 D C * a.!.5 5 5 . K @ @ - @ @ @ @ @ #                             P P X z.#.b c +.X.X.F X t u.u.~.~.~.~.",
"~.L 2.2.2.0 & r r C C r D D D a.!.5 5 5 & . @ @ ; @ @ @ @ @ - @                         . P P , 8.. b c +.X.X.4 o t 6 . ~.~.~.~.",
"~.. L 2.k P ~.. r c D t 5 e  .a.v.c V V t < @ @ ; ; # @ @ @ ; -                       X . # # c * % I L X.c c + X r ~.~.~.~.~.~.",
"~.~.~.. . ~.~.~.. C c r C 2  . .!.V V V V t . . . ; ; ; - - - -                       J.Q.. . . o %.q L X X. . .$ ~.~.~.~.~.~.~.",
"~.~.~.~.~.~.~.~.~.C V c V 2 |  .!.Y.V V V t m m &.. ; ; - - - - .                     Y.V.. # m o %.0 L X X.A. .+ ~.~.~.~.~.~.~.",
"~.~.~.~.~.~.~.~.~.. t * t r | |  .!.!.V V t Z . s W W ; ; - ; @ ; #                 Q.q ~ . o <.%.Q =.g I X.X.X.{ ~.~.~.~.~.~.~.",
"~.~.~.~.~.~.~.~.< [ 6 r V C r | ( . . . . J.!.O d 5.T ; ; ; ; ; ; #             . . V.T W v <.<.k Q =.g I X.X.| { ~.~.~.~.~.~.~.",
"~.~.~.~.~.~.~.. >.W.U r e * t . ( Y Y Y Y N O 8 . . y.u.X ; ; ; ; ; @       . # o . n.~ @ 2.6. .<.2.0 T & X.X.r e ~.~.~.~.~.~.~.",
"~.~.~.~.~.~.~.~.. Q.Q.. e e r r r > L L L H X W K . t d.X - @ @ @ @ ; - - - - # # # X C t C  .X. .S A x r X.r 3 . ~.~.~.~.~.~.~.",
"~.~.~.~.~.~.~.~.~.y.Q.. e e e r X., L L <.,.X + T . C g.. # @ @ @ @ ; ; ; ; o # # . * C C C  . . .. . . r r r . ~.~.~.~.~.~.~.~.",
"~.~.~.~.~.~.~.~.~.I !.. X S S p.X. .4 L k ,.>.9 F B . % . . ; ; ; ; ; ; - - . 4 D D 6 X X D  . .X r r r . . ~.~.~.~.~.~.~.~.~.~.",
"~.~.~.~.~.~.~.~.~.. I ^ . . S e.X. .6 ~ ;.:.*.>.X Z t.. v >.K . ; ; . . . - . D 4 . I.r  . . .* k q r r . % . . . ~.~.~.~.~.~.~.",
"~.~.~.~.~.~.~.~.~.R . W . . S e.Z. .| . ;.;.*.>.X p.p.p.k >.:.:.@ . >.>.J . D D . L.E. . . . .0 L L . e . X u j j . ~.~.~.~.~.~.",
"~.~.~.~.~.~.~.~.~.~.~.. . . S v.!.h.X.D C t . *.. k k 1.1.1.^ J >.>.;.:.:.r r S 2 :.r c c  . .. } k L b 4 h . . j j ~.~.~.~.~.~.",
"~.~.~.~.~.~.~.~.~.~.~.~.~.~.. . !.G.w.w.( t 4 . k 1.1.j 1.1.N J = ,.s k k r r X 4 X r  . . . .. 0.0.L s { . c.c.X j . ~.~.~.~.~.",
"~.~.~.~.~.~.~.~.~.~ ;.. . . Z.X = r r Z ( X.C 1 T k k 1.1.1.H . k Q 7.j 3.2.2.s e e r . X {  .X c S x 2.. c.c.c.- W . ~.~.~.~.~.",
"~.~.~.~.~.~.~.~.. s s Q +.k.K.X H *.. . r r X. .X ,.,.p >.k . g 2.3.k <.2.P P T 2 . * V V X o t c _ q 3.I.: : : f %.. ~.~.~.~.~.",
"~.~.~.~.~.~.~.X J p W Q +.h.. < k *.*.o . .  . .( ,.,.%.q X 3 . 2.k k ,.g 6.6.6.. X V V V t * . x y.s 3.6.6.6.%.%.k v X ~.~.~.~.",
"~.~.~.~.~.~.~.o W d.H T s.~ O.O.f &.*.*.m ~.5 C { . . } } 2 $ . 2.2.k T H 3.6.N X +.w.V V c . ) S +.. o I P P p p g I . ~.~.~.~.",
"~.~.~.~.~.~.~.~.~.. d.g :.:.O.O.3 W W X ~.~.~.. ( e e V.!.C { { . 2.2.o ;.N N N r c E.V c x n K * X g.! . %.%.~ ~ ,.. ~.~.~.~.~.",
"~.~.~.~.~.~.~.~.~.~.. g E ^ . O.O.@ @ ~.~.~.~.. c e  .u.!.o.C C t . . r X i i . t c | Y.C x n p . 6.B.! W . . ~ ~ . ~.~.~.~.~.~.",
"~.~.~.~.~.~.~.~.~.~.X j j g % . ~.~.~.~.~.~.~.~.c c  . . .X.X.X.{ r r r . Z Z e V V | j.. x + n.o Q Q ~ s ~.~.~.~.~.~.~.~.~.~.~.",
"~.~.~.~.~.~.~.~.~.~.X j p . ~.~.~.~.~.~.~.~.~.~.c c c  . .X.V r r r . . C S e r t c r r . + ~.. I I I L . ~.~.~.~.~.~.~.~.~.~.~.",
"~.~.~.~.~.~.~.~.~.~.~.~.~.~.~.~.~.~.~.~.~.~.~.~.. c c c x r r . . 4 * S S e . . r r . #.$.~.~.~.@ @ @ ~.~.~.~.~.~.~.~.~.~.~.~.~.",
"~.~.~.~.~.~.~.~.~.~.~.~.~.~.~.~.~.~.~.~.~.~.~.~.~.~.. . . . ~.~.~.~.. . ~.~.~.~.~.~.. . . ~.~.~.~.~.~.~.~.~.~.~.~.~.~.~.~.~.~.~."
};
