/* XPM */
static char *e6043a855efa414adf7c0d11884a5c51kHSxKD0YRddDIA6D[] = {
/* columns rows colors chars-per-pixel */
"64 64 20 1 ",
"  c #0C0A07",
". c #291A18",
"X c #362623",
"o c #3A2B28",
"O c #4C342F",
"+ c #553D39",
"@ c #4C403D",
"# c #554C3C",
"$ c #425059",
"% c #634A45",
"& c #657358",
"* c #57636B",
"= c #6E7D61",
"- c #B56A68",
"; c #78BA4B",
": c #87947C",
"> c #C0AC98",
", c #D2A394",
"< c #E4B5A5",
"1 c #DBCBBC",
/* pixels */
";;;;;;;;;;;;;;;;;;     ;;;;          ;;;;;;;;;;;;;;;;;;;;;;;;;;;",
";;;;;;;;;;;;;;;;;;     ;;;;          ;;;;;;;;;;;;;;;;;;;;;;;;;;;",
";;;;;;;;;;;;;;;;;;     ;;;;          ;;;;;;;;;;;;;;;;;;;;;;;;;;;",
";;;;;;;;;         OOOOO    OOOOOOOOOO         ;;;;;;;;;;;;;;;;;;",
";;;;;;;;;         OOOOO    OOOOOOOOOO         ;;;;;;;;;;;;;;;;;;",
";;;;;    +++++%%%%%%%%%OOOO%%%%%%%%%%++++OOOOO         ;;;;;;;;;",
";;;;;    +++++%%%%%%%%%OOOO%%%%%%%%%%++++OOOOO         ;;;;;;;;;",
";;;;;    +++++%%%%%%%%%OOOO%%%%%%%%%%++++OOOOO         ;;;;;;;;;",
";;;;;;;;;     %%%%%%%%%%%%%%%%%%%%%%%%%%%%%%%%OOOO+++++    ;;;;;",
";;;;;;;;;     %%%%%%%%%%%%%%%%%%%%%%%%%%%%%%%%OOOO+++++    ;;;;;",
";;;;;    +++++%%%%%%%%%%%%%%%%%%%%%%%%%%%%%%%%+++++++++    ;;;;;",
";;;;;    +++++%%%%%%%%%%%%%%%%%%%%%%%%%%%%%%%%+++++++++    ;;;;;",
";;;;;    +++++%%%%%%%%%%%%%%%%%%%%%%%%%%%%%%%%+++++++++    ;;;;;",
";;;;;    %%%%%OOOOOOOOO%%%%%%%%%%%%%%%%%%%%%%%%%%%+++++    ;;;;;",
";;;;;    %%%%%OOOOOOOOO%%%%%%%%%%%%%%%%%%%%%%%%%%%+++++    ;;;;;",
"     OOOO%%%%%,,,,OOOOO%%%%OOOOO%%%%%%%%%%%%%%++++OOOOOOOOO     ",
"     OOOO%%%%%,,,,OOOOO%%%%OOOOO%%%%%%%%%%%%%%++++OOOOOOOOO     ",
"     OOOO%%%%%,,,,OOOOO%%%%OOOOO%%%%%%%%%%%%%%++++OOOOOOOOO     ",
";;;;;    %%%%%,,,,,,,,,%%%%,,,,,%%%%%%%%%%%%%%%%%%OOOOO    ;;;;;",
";;;;;    %%%%%,,,,,,,,,%%%%,,,,,%%%%%%%%%%%%%%%%%%OOOOO    ;;;;;",
";;;;;    ,,,,,    ,,,,,<<<<     ,,,,,%%%%OOOOO%%%%+++++++++     ",
";;;;;    ,,,,,    ,,,,,<<<<     ,,,,,%%%%OOOOO%%%%+++++++++     ",
";;;;;    ,,,,,    ,,,,,<<<<     ,,,,,%%%%OOOOO%%%%+++++++++     ",
"     OOOO,,,,,....<<<<<<<<<.....,,,,,,,,,-----%%%%+++++    ;;;;;",
"     OOOO,,,,,....<<<<<<<<<.....,,,,,,,,,-----%%%%+++++    ;;;;;",
"     OOOO,,,,,....<<<<<<<<<.....,,,,,,,,,-----%%%%+++++    ;;;;;",
";;;;;    ,,,,,<<<<<<<<<<<<<<<<<<,,,,,,,,,++++++++++++++    ;;;;;",
";;;;;    ,,,,,<<<<<<<<<<<<<<<<<<,,,,,,,,,++++++++++++++    ;;;;;",
";;;;;;;;;     ,,,,<<<<<<<<<<<<<<,,,,,+++++++++++++     ;;;;;;;;;",
";;;;;;;;;     ,,,,<<<<<<<<<<<<<<,,,,,+++++++++++++     ;;;;;;;;;",
";;;;;;;;;     ,,,,<<<<<<<<<<<<<<,,,,,+++++++++++++     ;;;;;;;;;",
";;;;;;;;;;;;;;    ,,,,,,,,,,,,,,     +++++++++    ;;;;;;;;;;;;;;",
";;;;;;;;;;;;;;    ,,,,,,,,,,,,,,     +++++++++    ;;;;;;;;;;;;;;",
";;;;;;;;;     oooo>>>>>>>>>>>>>>ooooo====ooooo    ;;;;;;;;;;;;;;",
";;;;;;;;;     oooo>>>>>>>>>>>>>>ooooo====ooooo    ;;;;;;;;;;;;;;",
";;;;;;;;;     oooo>>>>>>>>>>>>>>ooooo====ooooo    ;;;;;;;;;;;;;;",
";;;;;;;;;     oooo111111111>>>>>@@@@@====ooooo    ;;;;;;;;;;;;;;",
";;;;;;;;;     oooo111111111>>>>>@@@@@====ooooo    ;;;;;;;;;;;;;;",
";;;;;    @@@@@oooo11111111111111@@@@@::::ooooooooo     ;;;;;;;;;",
";;;;;    @@@@@oooo11111111111111@@@@@::::ooooooooo     ;;;;;;;;;",
";;;;;    @@@@@oooo11111111111111@@@@@::::ooooooooo     ;;;;;;;;;",
";;;;;    @@@@@oooo>>>>>111111111@@@@@@@@@=====@@@@     ;;;;;;;;;",
";;;;;    @@@@@oooo>>>>>111111111@@@@@@@@@=====@@@@     ;;;;;;;;;",
";;;;;    @@@@@oooo>>>>>111111111@@@@@@@@@=====@@@@     ;;;;;;;;;",
"     @@@@ooooooooo11111>>>>11111@@@@@oooo&&&&&@@@@@@@@@    ;;;;;",
"     @@@@ooooooooo11111>>>>11111@@@@@oooo&&&&&@@@@@@@@@    ;;;;;",
"     ,,,,ooooooooo$$$$$$$$$$$$$$ooooooooo&&&&&,,,,<<<<<    ;;;;;",
"     ,,,,ooooooooo$$$$$$$$$$$$$$ooooooooo&&&&&,,,,<<<<<    ;;;;;",
"     ,,,,ooooooooo$$$$$$$$$$$$$$ooooooooo&&&&&,,,,<<<<<    ;;;;;",
";;;;;         ******************$$$$$$$$$              ;;;;;;;;;",
";;;;;         ******************$$$$$$$$$              ;;;;;;;;;",
";;;;;;;;;     *********$$$$**********$$$$     ;;;;;;;;;;;;;;;;;;",
";;;;;;;;;     *********$$$$**********$$$$     ;;;;;;;;;;;;;;;;;;",
";;;;;;;;;     *********$$$$**********$$$$     ;;;;;;;;;;;;;;;;;;",
";;;;;;;;;     ****$$$$$    $$$$$*****$$$$     ;;;;;;;;;;;;;;;;;;",
";;;;;;;;;     ****$$$$$    $$$$$*****$$$$     ;;;;;;;;;;;;;;;;;;",
";;;;;;;;;     $$$$$$$$$    $$$$$*****$$$$     ;;;;;;;;;;;;;;;;;;",
";;;;;;;;;     $$$$$$$$$    $$$$$*****$$$$     ;;;;;;;;;;;;;;;;;;",
";;;;;;;;;     $$$$$$$$$    $$$$$*****$$$$     ;;;;;;;;;;;;;;;;;;",
";;;;;;;;;     XXXXXXXXX    XXXXXXXXXXXXXX     ;;;;;;;;;;;;;;;;;;",
";;;;;;;;;     XXXXXXXXX    XXXXXXXXXXXXXX     ;;;;;;;;;;;;;;;;;;",
";;;;;    #########XXXXX    ##############     ;;;;;;;;;;;;;;;;;;",
";;;;;    #########XXXXX    ##############     ;;;;;;;;;;;;;;;;;;",
";;;;;    #########XXXXX    ##############     ;;;;;;;;;;;;;;;;;;"
};
