/* XPM */
static char *result[] = {
/* columns rows colors chars-per-pixel */
"64 64 20 1 ",
"  c #0C0A07",
". c #291A18",
"X c #362623",
"o c #3A2B28",
"O c #4C342F",
"+ c #553D39",
"@ c #4C403D",
"# c #554C3C",
"$ c #425059",
"% c #634A45",
"& c #657358",
"* c #57636B",
"= c #6E7D61",
"- c #B56A68",
"; c #87947C",
": c #C0AC98",
"> c #D2A394",
", c #E4B5A5",
"< c #DBCBBC",
"1 c None",
/* pixels */
"111111111111111111     1111          111111111111111111111111111",
"111111111111111111     1111          111111111111111111111111111",
"111111111111111111     1111          111111111111111111111111111",
"111111111         OOOOO    OOOOOOOOOO         111111111111111111",
"111111111         OOOOO    OOOOOOOOOO         111111111111111111",
"11111    +++++%%%%%%%%%OOOO%%%%%%%%%%++++OOOOO         111111111",
"11111    +++++%%%%%%%%%OOOO%%%%%%%%%%++++OOOOO         111111111",
"11111    +++++%%%%%%%%%OOOO%%%%%%%%%%++++OOOOO         111111111",
"111111111     %%%%%%%%%%%%%%%%%%%%%%%%%%%%%%%%OOOO+++++    11111",
"111111111     %%%%%%%%%%%%%%%%%%%%%%%%%%%%%%%%OOOO+++++    11111",
"11111    +++++%%%%%%%%%%%%%%%%%%%%%%%%%%%%%%%%+++++++++    11111",
"11111    +++++%%%%%%%%%%%%%%%%%%%%%%%%%%%%%%%%+++++++++    11111",
"11111    +++++%%%%%%%%%%%%%%%%%%%%%%%%%%%%%%%%+++++++++    11111",
"11111    %%%%%OOOOOOOOO%%%%%%%%%%%%%%%%%%%%%%%%%%%+++++    11111",
"11111    %%%%%OOOOOOOOO%%%%%%%%%%%%%%%%%%%%%%%%%%%+++++    11111",
"     OOOO%%%%%>>>>OOOOO%%%%OOOOO%%%%%%%%%%%%%%++++OOOOOOOOO     ",
"     OOOO%%%%%>>>>OOOOO%%%%OOOOO%%%%%%%%%%%%%%++++OOOOOOOOO     ",
"     OOOO%%%%%>>>>OOOOO%%%%OOOOO%%%%%%%%%%%%%%++++OOOOOOOOO     ",
"11111    %%%%%>>>>>>>>>%%%%>>>>>%%%%%%%%%%%%%%%%%%OOOOO    11111",
"11111    %%%%%>>>>>>>>>%%%%>>>>>%%%%%%%%%%%%%%%%%%OOOOO    11111",
"11111    >>>>>    >>>>>,,,,     >>>>>%%%%OOOOO%%%%+++++++++     ",
"11111    >>>>>    >>>>>,,,,     >>>>>%%%%OOOOO%%%%+++++++++     ",
"11111    >>>>>    >>>>>,,,,     >>>>>%%%%OOOOO%%%%+++++++++     ",
"     OOOO>>>>>....,,,,,,,,,.....>>>>>>>>>-----%%%%+++++    11111",
"     OOOO>>>>>....,,,,,,,,,.....>>>>>>>>>-----%%%%+++++    11111",
"     OOOO>>>>>....,,,,,,,,,.....>>>>>>>>>-----%%%%+++++    11111",
"11111    >>>>>,,,,,,,,,,,,,,,,,,>>>>>>>>>++++++++++++++    11111",
"11111    >>>>>,,,,,,,,,,,,,,,,,,>>>>>>>>>++++++++++++++    11111",
"111111111     >>>>,,,,,,,,,,,,,,>>>>>+++++++++++++     111111111",
"111111111     >>>>,,,,,,,,,,,,,,>>>>>+++++++++++++     111111111",
"111111111     >>>>,,,,,,,,,,,,,,>>>>>+++++++++++++     111111111",
"11111111111111    >>>>>>>>>>>>>>     +++++++++    11111111111111",
"11111111111111    >>>>>>>>>>>>>>     +++++++++    11111111111111",
"111111111     oooo::::::::::::::ooooo====ooooo    11111111111111",
"111111111     oooo::::::::::::::ooooo====ooooo    11111111111111",
"111111111     oooo::::::::::::::ooooo====ooooo    11111111111111",
"111111111     oooo<<<<<<<<<:::::@@@@@====ooooo    11111111111111",
"111111111     oooo<<<<<<<<<:::::@@@@@====ooooo    11111111111111",
"11111    @@@@@oooo<<<<<<<<<<<<<<@@@@@;;;;ooooooooo     111111111",
"11111    @@@@@oooo<<<<<<<<<<<<<<@@@@@;;;;ooooooooo     111111111",
"11111    @@@@@oooo<<<<<<<<<<<<<<@@@@@;;;;ooooooooo     111111111",
"11111    @@@@@oooo:::::<<<<<<<<<@@@@@@@@@=====@@@@     111111111",
"11111    @@@@@oooo:::::<<<<<<<<<@@@@@@@@@=====@@@@     111111111",
"11111    @@@@@oooo:::::<<<<<<<<<@@@@@@@@@=====@@@@     111111111",
"     @@@@ooooooooo<<<<<::::<<<<<@@@@@oooo&&&&&@@@@@@@@@    11111",
"     @@@@ooooooooo<<<<<::::<<<<<@@@@@oooo&&&&&@@@@@@@@@    11111",
"     >>>>ooooooooo$$$$$$$$$$$$$$ooooooooo&&&&&>>>>,,,,,    11111",
"     >>>>ooooooooo$$$$$$$$$$$$$$ooooooooo&&&&&>>>>,,,,,    11111",
"     >>>>ooooooooo$$$$$$$$$$$$$$ooooooooo&&&&&>>>>,,,,,    11111",
"11111         ******************$$$$$$$$$              111111111",
"11111         ******************$$$$$$$$$              111111111",
"111111111     *********$$$$**********$$$$     111111111111111111",
"111111111     *********$$$$**********$$$$     111111111111111111",
"111111111     *********$$$$**********$$$$     111111111111111111",
"111111111     ****$$$$$    $$$$$*****$$$$     111111111111111111",
"111111111     ****$$$$$    $$$$$*****$$$$     111111111111111111",
"111111111     $$$$$$$$$    $$$$$*****$$$$     111111111111111111",
"111111111     $$$$$$$$$    $$$$$*****$$$$     111111111111111111",
"111111111     $$$$$$$$$    $$$$$*****$$$$     111111111111111111",
"111111111     XXXXXXXXX    XXXXXXXXXXXXXX     111111111111111111",
"111111111     XXXXXXXXX    XXXXXXXXXXXXXX     111111111111111111",
"11111    #########XXXXX    ##############     111111111111111111",
"11111    #########XXXXX    ##############     111111111111111111",
"11111    #########XXXXX    ##############     111111111111111111"
};
