/* XPM */
static char *result[] = {
/* columns rows colors chars-per-pixel */
"64 64 21 1 ",
"  c black",
". c #0C0A07",
"X c #291A18",
"o c #362623",
"O c #3A2B28",
"+ c #4C342F",
"@ c #553D39",
"# c #4C403D",
"$ c #554C3C",
"% c #425059",
"& c #634A45",
"* c #657358",
"= c #57636B",
"- c #6E7D61",
"; c #B56A68",
": c #87947C",
"> c #C0AC98",
", c #D2A394",
"< c #E4B5A5",
"1 c #DBCBBC",
"2 c None",
/* pixels */
"2222222222222222222222222222222222222222222222222222222222222222",
"2222222222222222222222222222222222222222222222222222222222222222",
"222222222222222222222222222..............22222....22222222222222",
"222222222222222222222222222..............22222....22222222222222",
"222222222222222222222222222..............22222....22222222222222",
"222222222..................++++++++++++++.....++++.....222222222",
"222222222..................++++++++++++++.....++++.....222222222",
"22222....++++++++++++++@@@@&&&&&&&&&&&&&&+++++&&&&.....222222222",
"22222....++++++++++++++@@@@&&&&&&&&&&&&&&+++++&&&&.....222222222",
"22222....++++++++++++++@@@@&&&&&&&&&&&&&&+++++&&&&.....222222222",
"222222222.....@@@@&&&&&&&&&&&&&&&&&&&&&&&&&&&&&&&&&&&&&....22222",
"222222222.....@@@@&&&&&&&&&&&&&&&&&&&&&&&&&&&&&&&&&&&&&....22222",
"22222....@@@@@&&&&&&&&&&&&&&&&&&&&&&&&&&&&&&&&&&&&&&&&&....22222",
"22222....@@@@@&&&&&&&&&&&&&&&&&&&&&&&&&&&&&&&&&&&&&&&&&....22222",
"22222....@@@@@&&&&&&&&&&&&&&&&&&&&&&&&&&&&&&&&&&&&&&&&&....22222",
"22222....@@@@@&&&&&&&&&&&&&&&&&&+++++++++&&&&&&&&&&&&&&    22222",
"22222....@@@@@&&&&&&&&&&&&&&&&&&+++++++++&&&&&&&&&&&&&&    22222",
".....+++++++++@@@@&&&&&&&&&&&&&&,,,,,++++&&&&&++++&&&&&@@@@     ",
".....+++++++++@@@@&&&&&&&&&&&&&&,,,,,++++&&&&&++++&&&&&@@@@     ",
".....+++++++++@@@@&&&&&&&&&&&&&&,,,,,++++&&&&&++++&&&&&@@@@     ",
"22222....+++++&&&&&&&&&&&&&,,,,,,,,,,,,,,&&&&&,,,,&&&&&    22222",
"22222....+++++&&&&&&&&&&&&&,,,,,,,,,,,,,,&&&&&,,,,&&&&&    22222",
"22222....@@@@@&&&&&&&&&,,,,,,,,,.....<<<<,,,,,....,,,,,@@@@     ",
"22222....@@@@@&&&&&&&&&,,,,,,,,,.....<<<<,,,,,....,,,,,@@@@     ",
"22222....@@@@@&&&&&&&&&,,,,,,,,,.....<<<<,,,,,....,,,,,@@@@     ",
".....++++@@@@@&&&&;;;;;,,,,,,,,,XXXXX<<<<<<<<<XXXX,,,,,    22222",
".....++++@@@@@&&&&;;;;;,,,,,,,,,XXXXX<<<<<<<<<XXXX,,,,,    22222",
"22222....@@@@@@@@@@@@@@,,,,,,,,,<<<<<<<<<<<<<<<<<<,,,,,    22222",
"22222....@@@@@@@@@@@@@@,,,,,,,,,<<<<<<<<<<<<<<<<<<,,,,,    22222",
"22222....@@@@@@@@@@@@@@,,,,,,,,,<<<<<<<<<<<<<<<<<<,,,,,    22222",
"222222222.....@@@@@@@@@@@@@,,,,,<<<<<<<<<<<<<<,,,,     222222222",
"222222222.....@@@@@@@@@@@@@,,,,,<<<<<<<<<<<<<<,,,,     222222222",
"222222222222222222.....@@@@@@@@@,,,,,,,,,,,,,,....22222222222222",
"222222222222222222.....@@@@@@@@@,,,,,,,,,,,,,,....22222222222222",
"22222222222222....OOOOO----OOOOO>>>>>>>>>>>>>>OOOO.....222222222",
"22222222222222....OOOOO----OOOOO>>>>>>>>>>>>>>OOOO.....222222222",
"22222222222222....OOOOO----OOOOO>>>>>>>>>>>>>>OOOO.....222222222",
"22222222222222....OOOOO----#####111111111>>>>>OOOO.....222222222",
"22222222222222....OOOOO----#####111111111>>>>>OOOO.....222222222",
"222222222.....OOOOOOOOO::::#####11111111111111OOOO#####....22222",
"222222222.....OOOOOOOOO::::#####11111111111111OOOO#####....22222",
"222222222.....OOOOOOOOO::::#####11111111111111OOOO#####....22222",
"222222222.....####-----#########>>>>>111111111OOOO#####....22222",
"222222222.....####-----#########>>>>>111111111OOOO#####....22222",
"22222....#########*****OOOO#####11111>>>>11111OOOOOOOOO####.....",
"22222....#########*****OOOO#####11111>>>>11111OOOOOOOOO####.....",
"22222....#########*****OOOO#####11111>>>>11111OOOOOOOOO####.....",
"22222....<<<<<,,,,*****OOOOOOOOO%%%%%%%%%%%%%%OOOOOOOOO,,,,.....",
"22222....<<<<<,,,,*****OOOOOOOOO%%%%%%%%%%%%%%OOOOOOOOO,,,,.....",
"222222222..............%%%%%%%%%==================.........22222",
"222222222..............%%%%%%%%%==================.........22222",
"222222222..............%%%%%%%%%==================.........22222",
"222222222222222222.....%%%%==========%%%%=========.....222222222",
"222222222222222222.....%%%%==========%%%%=========.....222222222",
"222222222222222222.....%%%%=====%%%%%....%%%%%====.....222222222",
"222222222222222222.....%%%%=====%%%%%....%%%%%====.....222222222",
"222222222222222222.....%%%%=====%%%%%....%%%%%====.....222222222",
"222222222222222222.....%%%%=====%%%%%....%%%%%%%%%.....222222222",
"222222222222222222.....%%%%=====%%%%%....%%%%%%%%%.....222222222",
"222222222222222222.....oooooooooooooo....ooooooooo.....222222222",
"222222222222222222.....oooooooooooooo....ooooooooo.....222222222",
"222222222222222222.....oooooooooooooo....ooooooooo.....222222222",
"222222222222222222.....$$$$$$$$$$$$$$....ooooo$$$$$$$$$....22222",
"222222222222222222.....$$$$$$$$$$$$$$....ooooo$$$$$$$$$....22222"
};
