/* XPM */
static char *_862740b78e04c9a87a55c587d37dc6b7U9fisZ5mpbLirUt[] = {
/* columns rows colors chars-per-pixel */
"64 64 21 1 ",
"  c black",
". c #0C0A07",
"X c #291A18",
"o c #362623",
"O c #3A2B28",
"+ c #4C342F",
"@ c #553D39",
"# c #4C403D",
"$ c #554C3C",
"% c #425059",
"& c #634A45",
"* c #657358",
"= c #57636B",
"- c #6E7D61",
"; c #B56A68",
": c #78BA4B",
"> c #87947C",
", c #C0AC98",
"< c #D2A394",
"1 c #E4B5A5",
"2 c #DBCBBC",
/* pixels */
"::::::::::::::::::::::::::::::::::::::::::::::::::::::::::::::::",
"::::::::::::::::::::::::::::::::::::::::::::::::::::::::::::::::",
":::::::::::::::::::::::::::..............:::::....::::::::::::::",
":::::::::::::::::::::::::::..............:::::....::::::::::::::",
":::::::::::::::::::::::::::..............:::::....::::::::::::::",
":::::::::..................++++++++++++++.....++++.....:::::::::",
":::::::::..................++++++++++++++.....++++.....:::::::::",
":::::....++++++++++++++@@@@&&&&&&&&&&&&&&+++++&&&&.....:::::::::",
":::::....++++++++++++++@@@@&&&&&&&&&&&&&&+++++&&&&.....:::::::::",
":::::....++++++++++++++@@@@&&&&&&&&&&&&&&+++++&&&&.....:::::::::",
":::::::::.....@@@@&&&&&&&&&&&&&&&&&&&&&&&&&&&&&&&&&&&&&....:::::",
":::::::::.....@@@@&&&&&&&&&&&&&&&&&&&&&&&&&&&&&&&&&&&&&....:::::",
":::::....@@@@@&&&&&&&&&&&&&&&&&&&&&&&&&&&&&&&&&&&&&&&&&....:::::",
":::::....@@@@@&&&&&&&&&&&&&&&&&&&&&&&&&&&&&&&&&&&&&&&&&....:::::",
":::::....@@@@@&&&&&&&&&&&&&&&&&&&&&&&&&&&&&&&&&&&&&&&&&....:::::",
":::::....@@@@@&&&&&&&&&&&&&&&&&&+++++++++&&&&&&&&&&&&&&    :::::",
":::::....@@@@@&&&&&&&&&&&&&&&&&&+++++++++&&&&&&&&&&&&&&    :::::",
".....+++++++++@@@@&&&&&&&&&&&&&&<<<<<++++&&&&&++++&&&&&@@@@     ",
".....+++++++++@@@@&&&&&&&&&&&&&&<<<<<++++&&&&&++++&&&&&@@@@     ",
".....+++++++++@@@@&&&&&&&&&&&&&&<<<<<++++&&&&&++++&&&&&@@@@     ",
":::::....+++++&&&&&&&&&&&&&<<<<<<<<<<<<<<&&&&&<<<<&&&&&    :::::",
":::::....+++++&&&&&&&&&&&&&<<<<<<<<<<<<<<&&&&&<<<<&&&&&    :::::",
":::::....@@@@@&&&&&&&&&<<<<<<<<<.....1111<<<<<....<<<<<@@@@     ",
":::::....@@@@@&&&&&&&&&<<<<<<<<<.....1111<<<<<....<<<<<@@@@     ",
":::::....@@@@@&&&&&&&&&<<<<<<<<<.....1111<<<<<....<<<<<@@@@     ",
".....++++@@@@@&&&&;;;;;<<<<<<<<<XXXXX111111111XXXX<<<<<    :::::",
".....++++@@@@@&&&&;;;;;<<<<<<<<<XXXXX111111111XXXX<<<<<    :::::",
":::::....@@@@@@@@@@@@@@<<<<<<<<<111111111111111111<<<<<    :::::",
":::::....@@@@@@@@@@@@@@<<<<<<<<<111111111111111111<<<<<    :::::",
":::::....@@@@@@@@@@@@@@<<<<<<<<<111111111111111111<<<<<    :::::",
":::::::::.....@@@@@@@@@@@@@<<<<<11111111111111<<<<     :::::::::",
":::::::::.....@@@@@@@@@@@@@<<<<<11111111111111<<<<     :::::::::",
"::::::::::::::::::.....@@@@@@@@@<<<<<<<<<<<<<<....::::::::::::::",
"::::::::::::::::::.....@@@@@@@@@<<<<<<<<<<<<<<....::::::::::::::",
"::::::::::::::....OOOOO----OOOOO,,,,,,,,,,,,,,OOOO.....:::::::::",
"::::::::::::::....OOOOO----OOOOO,,,,,,,,,,,,,,OOOO.....:::::::::",
"::::::::::::::....OOOOO----OOOOO,,,,,,,,,,,,,,OOOO.....:::::::::",
"::::::::::::::....OOOOO----#####222222222,,,,,OOOO.....:::::::::",
"::::::::::::::....OOOOO----#####222222222,,,,,OOOO.....:::::::::",
":::::::::.....OOOOOOOOO>>>>#####22222222222222OOOO#####....:::::",
":::::::::.....OOOOOOOOO>>>>#####22222222222222OOOO#####....:::::",
":::::::::.....OOOOOOOOO>>>>#####22222222222222OOOO#####....:::::",
":::::::::.....####-----#########,,,,,222222222OOOO#####....:::::",
":::::::::.....####-----#########,,,,,222222222OOOO#####....:::::",
":::::....#########*****OOOO#####22222,,,,22222OOOOOOOOO####.....",
":::::....#########*****OOOO#####22222,,,,22222OOOOOOOOO####.....",
":::::....#########*****OOOO#####22222,,,,22222OOOOOOOOO####.....",
":::::....11111<<<<*****OOOOOOOOO%%%%%%%%%%%%%%OOOOOOOOO<<<<.....",
":::::....11111<<<<*****OOOOOOOOO%%%%%%%%%%%%%%OOOOOOOOO<<<<.....",
":::::::::..............%%%%%%%%%==================.........:::::",
":::::::::..............%%%%%%%%%==================.........:::::",
":::::::::..............%%%%%%%%%==================.........:::::",
"::::::::::::::::::.....%%%%==========%%%%=========.....:::::::::",
"::::::::::::::::::.....%%%%==========%%%%=========.....:::::::::",
"::::::::::::::::::.....%%%%=====%%%%%....%%%%%====.....:::::::::",
"::::::::::::::::::.....%%%%=====%%%%%....%%%%%====.....:::::::::",
"::::::::::::::::::.....%%%%=====%%%%%....%%%%%====.....:::::::::",
"::::::::::::::::::.....%%%%=====%%%%%....%%%%%%%%%.....:::::::::",
"::::::::::::::::::.....%%%%=====%%%%%....%%%%%%%%%.....:::::::::",
"::::::::::::::::::.....oooooooooooooo....ooooooooo.....:::::::::",
"::::::::::::::::::.....oooooooooooooo....ooooooooo.....:::::::::",
"::::::::::::::::::.....oooooooooooooo....ooooooooo.....:::::::::",
"::::::::::::::::::.....$$$$$$$$$$$$$$....ooooo$$$$$$$$$....:::::",
"::::::::::::::::::.....$$$$$$$$$$$$$$....ooooo$$$$$$$$$....:::::"
};
