/* XPM */
static char *_d6dcd82a3ec4bebc59365b20526b6adMcqDw3p2B5TavGls[] = {
/* columns rows colors chars-per-pixel */
"64 64 9 1 ",
"  c #1F0E1C",
". c #564F4F",
"X c #39944A",
"o c #78BA4B",
"O c #9B968F",
"+ c #BAB6AB",
"@ c #D6D4C7",
"# c #E9E6DC",
"$ c #FDFFEA",
/* pixels */
"ooooooooooooooo                   oooooooooooooooooooooooooooooo",
"ooooooooooooooo                   oooooooooooooooooooooooooooooo",
"ooooooooooooooo                   oooooooooooooooooooooooooooooo",
"ooooooooooooooo                   oooooooooooooooooooooooooooooo",
"ooooooooooo    @@@@###########@@@@    oooooooooooooooooooooooooo",
"ooooooooooo    @@@@###########@@@@    oooooooooooooooooooooooooo",
"ooooooooooo    @@@@###########@@@@    oooooooooooooooooooooooooo",
"ooooooooooo    @@@@###########@@@@    oooooooooooooooooooooooooo",
"oooooooo   ###########################               ooooooooooo",
"oooooooo   ###########################               ooooooooooo",
"oooooooo   ###########################               ooooooooooo",
"oooooooo   ###########################               ooooooooooo",
"oooo    @@@###########################@@@....####@@@@   oooooooo",
"oooo    @@@###########################@@@....####@@@@   oooooooo",
"oooo    @@@###########################@@@....####@@@@   oooooooo",
"oooo    @@@###########################@@@....####@@@@   oooooooo",
"oooo    #################################OOOO########@@@    oooo",
"oooo    #################################OOOO########@@@    oooo",
"oooo    #################################OOOO########@@@    oooo",
"oooo    #################################OOOO########@@@    oooo",
"oooo    @@@##############################++++###########    oooo",
"oooo    @@@##############################++++###########    oooo",
"oooo    @@@##############################++++###########    oooo",
"oooo    @@@##############################++++###########    oooo",
"oooo    @@@@@@@##########################++++###########    oooo",
"oooo    @@@@@@@##########################++++###########    oooo",
"oooo    @@@@@@@##########################++++###########    oooo",
"oooo    @@@@@@@##########################++++###########    oooo",
"oooo    @@@@@@@@@@@####$$$$$$$####@@@@+++++++####@@@@+++    oooo",
"oooo    @@@@@@@@@@@####$$$$$$$####@@@@+++++++####@@@@+++    oooo",
"oooo    @@@@@@@@@@@####$$$$$$$####@@@@+++++++####@@@@+++    oooo",
"oooo    @@@@@@@@@@@####$$$$$$$####@@@@+++++++####@@@@+++    oooo",
"    @@@@+++@@@@@@@@@@@@++++++++++++++++++@@@@########@@@        ",
"    @@@@+++@@@@@@@@@@@@++++++++++++++++++@@@@########@@@        ",
"    @@@@+++@@@@@@@@@@@@++++++++++++++++++@@@@########@@@        ",
"    @@@@+++@@@@@@@@@@@@++++++++++++++++++@@@@########@@@        ",
"    #######@@@@@@@@@@@@@@@++++++++++++@@@###############        ",
"    #######@@@@@@@@@@@@@@@++++++++++++@@@###############        ",
"    #######@@@@@@@@@@@@@@@++++++++++++@@@###############        ",
"    #######@@@@@@@@@@@@@@@++++++++++++@@@###############        ",
"    ######################@@@@##########################        ",
"    ######################@@@@##########################        ",
"    ######################@@@@##########################        ",
"    ######################@@@@##########################        ",
"    ######################++++##########################        ",
"    ######################++++##########################        ",
"    ######################++++##########################        ",
"    ######################++++##########################        ",
"....@@@@###$$$$$$$$####@@@++++@@@@####$$$$$$$$$$$####@@@    ....",
"....@@@@###$$$$$$$$####@@@++++@@@@####$$$$$$$$$$$####@@@    ....",
"....@@@@###$$$$$$$$####@@@++++@@@@####$$$$$$$$$$$####@@@    ....",
"....@@@@###$$$$$$$$####@@@++++@@@@####$$$$$$$$$$$####@@@    ....",
"oooo@@@@@@@+++++++++++++++++++@@@@@@@@@@@+++++++++++++++....XXXX",
"oooo@@@@@@@+++++++++++++++++++@@@@@@@@@@@+++++++++++++++....XXXX",
"oooo@@@@@@@+++++++++++++++++++@@@@@@@@@@@+++++++++++++++....XXXX",
"oooo@@@@@@@+++++++++++++++++++@@@@@@@@@@@+++++++++++++++....XXXX",
"oooo@@@@@@@@@@@+++++++++++oooo@@@@@@@@@@@+++++++++++++++oooooooo",
"oooo@@@@@@@@@@@+++++++++++oooo@@@@@@@@@@@+++++++++++++++oooooooo",
"oooo@@@@@@@@@@@+++++++++++oooo@@@@@@@@@@@+++++++++++++++oooooooo",
"oooo@@@@@@@@@@@+++++++++++oooo@@@@@@@@@@@+++++++++++++++oooooooo",
"oooooooooooooooooooooooooooooooooo@@@@@@@++++++++++++ooooooooooo",
"oooooooooooooooooooooooooooooooooo@@@@@@@++++++++++++ooooooooooo",
"oooooooooooooooooooooooooooooooooo@@@@@@@++++++++++++ooooooooooo",
"oooooooooooooooooooooooooooooooooo@@@@@@@++++++++++++ooooooooooo"
};
