/* XPM */
static char *result[] = {
/* columns rows colors chars-per-pixel */
"64 64 10 1 ",
"  c #1F0E1C",
". c #564F4F",
"X c #39944A",
"o c #78BA4B",
"O c #9B968F",
"+ c #BAB6AB",
"@ c #D6D4C7",
"# c #E9E6DC",
"$ c #FDFFEA",
"% c None",
/* pixels */
"%%%%%%%%%%%%%%%                   %%%%%%%%%%%%%%%%%%%%%%%%%%%%%%",
"%%%%%%%%%%%%%%%                   %%%%%%%%%%%%%%%%%%%%%%%%%%%%%%",
"%%%%%%%%%%%%%%%                   %%%%%%%%%%%%%%%%%%%%%%%%%%%%%%",
"%%%%%%%%%%%%%%%                   %%%%%%%%%%%%%%%%%%%%%%%%%%%%%%",
"%%%%%%%%%%%    @@@@###########@@@@    %%%%%%%%%%%%%%%%%%%%%%%%%%",
"%%%%%%%%%%%    @@@@###########@@@@    %%%%%%%%%%%%%%%%%%%%%%%%%%",
"%%%%%%%%%%%    @@@@###########@@@@    %%%%%%%%%%%%%%%%%%%%%%%%%%",
"%%%%%%%%%%%    @@@@###########@@@@    %%%%%%%%%%%%%%%%%%%%%%%%%%",
"%%%%%%%%   ###########################               %%%%%%%%%%%",
"%%%%%%%%   ###########################               %%%%%%%%%%%",
"%%%%%%%%   ###########################               %%%%%%%%%%%",
"%%%%%%%%   ###########################               %%%%%%%%%%%",
"%%%%    @@@###########################@@@....####@@@@   %%%%%%%%",
"%%%%    @@@###########################@@@....####@@@@   %%%%%%%%",
"%%%%    @@@###########################@@@....####@@@@   %%%%%%%%",
"%%%%    @@@###########################@@@....####@@@@   %%%%%%%%",
"%%%%    #################################OOOO########@@@    %%%%",
"%%%%    #################################OOOO########@@@    %%%%",
"%%%%    #################################OOOO########@@@    %%%%",
"%%%%    #################################OOOO########@@@    %%%%",
"%%%%    @@@##############################++++###########    %%%%",
"%%%%    @@@##############################++++###########    %%%%",
"%%%%    @@@##############################++++###########    %%%%",
"%%%%    @@@##############################++++###########    %%%%",
"%%%%    @@@@@@@##########################++++###########    %%%%",
"%%%%    @@@@@@@##########################++++###########    %%%%",
"%%%%    @@@@@@@##########################++++###########    %%%%",
"%%%%    @@@@@@@##########################++++###########    %%%%",
"%%%%    @@@@@@@@@@@####$$$$$$$####@@@@+++++++####@@@@+++    %%%%",
"%%%%    @@@@@@@@@@@####$$$$$$$####@@@@+++++++####@@@@+++    %%%%",
"%%%%    @@@@@@@@@@@####$$$$$$$####@@@@+++++++####@@@@+++    %%%%",
"%%%%    @@@@@@@@@@@####$$$$$$$####@@@@+++++++####@@@@+++    %%%%",
"    @@@@+++@@@@@@@@@@@@++++++++++++++++++@@@@########@@@        ",
"    @@@@+++@@@@@@@@@@@@++++++++++++++++++@@@@########@@@        ",
"    @@@@+++@@@@@@@@@@@@++++++++++++++++++@@@@########@@@        ",
"    @@@@+++@@@@@@@@@@@@++++++++++++++++++@@@@########@@@        ",
"    #######@@@@@@@@@@@@@@@++++++++++++@@@###############        ",
"    #######@@@@@@@@@@@@@@@++++++++++++@@@###############        ",
"    #######@@@@@@@@@@@@@@@++++++++++++@@@###############        ",
"    #######@@@@@@@@@@@@@@@++++++++++++@@@###############        ",
"    ######################@@@@##########################        ",
"    ######################@@@@##########################        ",
"    ######################@@@@##########################        ",
"    ######################@@@@##########################        ",
"    ######################++++##########################        ",
"    ######################++++##########################        ",
"    ######################++++##########################        ",
"    ######################++++##########################        ",
"....@@@@###$$$$$$$$####@@@++++@@@@####$$$$$$$$$$$####@@@    ....",
"....@@@@###$$$$$$$$####@@@++++@@@@####$$$$$$$$$$$####@@@    ....",
"....@@@@###$$$$$$$$####@@@++++@@@@####$$$$$$$$$$$####@@@    ....",
"....@@@@###$$$$$$$$####@@@++++@@@@####$$$$$$$$$$$####@@@    ....",
"oooo@@@@@@@+++++++++++++++++++@@@@@@@@@@@+++++++++++++++....XXXX",
"oooo@@@@@@@+++++++++++++++++++@@@@@@@@@@@+++++++++++++++....XXXX",
"oooo@@@@@@@+++++++++++++++++++@@@@@@@@@@@+++++++++++++++....XXXX",
"oooo@@@@@@@+++++++++++++++++++@@@@@@@@@@@+++++++++++++++....XXXX",
"%%%%@@@@@@@@@@@+++++++++++oooo@@@@@@@@@@@+++++++++++++++oooo%%%%",
"%%%%@@@@@@@@@@@+++++++++++oooo@@@@@@@@@@@+++++++++++++++oooo%%%%",
"%%%%@@@@@@@@@@@+++++++++++oooo@@@@@@@@@@@+++++++++++++++oooo%%%%",
"%%%%@@@@@@@@@@@+++++++++++oooo@@@@@@@@@@@+++++++++++++++oooo%%%%",
"%%%%%%%%%%%%%%%%%%%%%%%%%%%%%%%%%%@@@@@@@++++++++++++ooo%%%%%%%%",
"%%%%%%%%%%%%%%%%%%%%%%%%%%%%%%%%%%@@@@@@@++++++++++++ooo%%%%%%%%",
"%%%%%%%%%%%%%%%%%%%%%%%%%%%%%%%%%%@@@@@@@++++++++++++ooo%%%%%%%%",
"%%%%%%%%%%%%%%%%%%%%%%%%%%%%%%%%%%@@@@@@@++++++++++++ooo%%%%%%%%"
};
